<?xml version="1.0"?>
<svg xmlns="http://www.w3.org/2000/svg" enable-background="new 0 0 246 64" viewBox="0 0 246 64">
  <path d="m.526.828v29.736.349h.349 29.737.349v-.349-29.736-.349h-.349-29.737-.349z" fill="#003361"/>
  <path d="m.526.828v29.736.349h.349 29.737.349v-.349-29.736-.349h-.349-29.737-.349z" fill="none"/>
  <path d="m.524 33.577v29.728.35h.351 29.727.351v-.35-29.728-.349h-.351-29.727-.351z" fill="#f29100"/>
  <g fill="#003361">
    <path d="m207.783 63.288h3.812v-10.642l9.244 10.642h5.473l-10.826-11.534 9.612-9.179h-5.193l-8.31 8.405v-17.349h-3.812z"/>
    <path d="m124.451 63.288h3.648v-2.92h.082c1.014 1.541 3.364 3.405 7.055 3.405 6.246 0 8.88-5.514 8.88-11.19 0-5.557-2.919-10.462-8.919-10.462-3.61 0-5.678 1.421-6.854 3.326h-.082v-11.77h-3.811v29.611zm15.611-10.421c.082 3.244-1.622 7.826-5.718 7.826-4.298 0-6.082-4.259-6.082-7.705 0-3.852 1.987-7.785 6.123-7.785s5.759 3.934 5.677 7.664z"/>
    <path d="m48.353 63.264h3.811v-20.68h-3.811z"/>
    <path d="m48.353 37.354h3.811v-3.809h-3.811z"/>
    <path d="m59.133 63.288h3.812v-9.569c0-5.028 1.946-8.516 6.285-8.516 3.326.203 4.379 2.555 4.379 7.38v10.705h3.812v-12.287c0-5.554-2.393-8.88-7.745-8.88-2.878 0-5.636 1.421-6.771 3.771h-.082v-3.284h-3.69zm24.776 0h3.811v-9.569c0-5.028 1.947-8.516 6.286-8.516 3.325.203 4.379 2.555 4.379 7.38v10.705h3.812v-12.287c0-5.554-2.393-8.88-7.745-8.88-2.879 0-5.637 1.421-6.772 3.771h-.081v-3.284h-3.69zm23.031-.648c1.744.932 3.73 1.134 5.677 1.134 3.688 0 7.217-2.026 7.217-6.446 0-6.61-8.96-5.393-8.96-9.61 0-1.703 1.703-2.514 3.648-2.514.893 0 3.164.526 4.014 1.054l.325-3.325c-1.501-.446-2.96-.811-4.745-.811-4.095 0-7.298 2.069-7.298 6.367 0 5.798 8.96 5.475 8.96 9.244 0 2.23-2.149 2.961-3.893 2.961-1.095 0-3.244-.487-4.745-1.461zm42.29.648h3.812v-9.407c0-5.19 2.23-8.434 5.637-8.434.648 0 1.418.079 2.107.364v-3.406c-.811-.161-1.377-.284-2.513-.284-2.19 0-4.38 1.541-5.393 3.69h-.08v-3.203h-3.569v20.68zm34.063-20.68h-3.812v9.569c0 5.028-1.946 8.516-6.285 8.516-3.326-.204-4.38-2.556-4.38-7.38v-10.705h-3.811v12.285c0 5.557 2.391 8.88 7.744 8.88 2.88 0 5.636-1.418 6.772-3.77h.079v3.284h3.692v-20.679zm19.949.324c-1.097-.446-3.082-.811-4.623-.811-6.326 0-10.544 4.541-10.544 10.826 0 5.921 4.3 10.826 10.544 10.826 1.377 0 3.203-.121 4.785-.852l-.285-3.405c-1.174.77-2.797 1.177-4.095 1.177-4.905 0-6.893-4.056-6.893-7.746 0-3.934 2.393-7.744 6.649-7.744 1.215 0 2.677.285 4.136.893z"/>
    <path d="m205.377 9.796h-5.473v-7.07l-3.811 1.216v5.854h-4.664v3.082h4.664v12.083c0 4.136 2.434 6.001 6.365 6.001 1.215 0 2.392-.324 3.243-.568v-3.244c-.566.365-1.418.73-2.595.73-1.744 0-3.203-1.297-3.203-3.69v-11.313h5.473v-3.081z"/>
    <path d="m243.682 9.796h-5.475v-7.07l-3.812 1.216v5.854h-4.662v3.082h4.662v12.083c0 4.136 2.434 6.001 6.367 6.001 1.215 0 2.393-.324 3.243-.568v-3.244c-.566.365-1.418.73-2.595.73-1.743 0-3.203-1.297-3.203-3.69v-11.313h5.475z"/>
    <path d="m183.581 4.641h3.814v-3.812h-3.814z"/>
    <path d="m97.954 4.641h3.811v-3.812h-3.811z"/>
    <path d="m212.947 6.546h3.813v-3.811h-3.813z"/>
    <path d="m219.562 6.546h3.81v-3.811h-3.81z"/>
    <path d="m66.201 9.874h-3.811v9.57c0 5.028-1.946 8.515-6.286 8.515-3.325-.203-4.378-2.555-4.378-7.38v-10.705h-3.812v12.287c0 5.555 2.392 8.88 7.745 8.88 2.878 0 5.636-1.419 6.771-3.771h.081v3.284h3.69zm6.487 20.68h3.812v-9.569c0-5.028 1.946-8.515 6.285-8.515 3.326.203 4.379 2.555 4.379 7.38v10.704h3.812v-12.286c0-5.556-2.393-8.88-7.744-8.88-2.879 0-5.637 1.419-6.772 3.771h-.082v-3.285h-3.69zm25.263 0h3.811v-20.68h-3.811zm27.37-20.68h-3.812l-5.717 16.868h-.082l-5.595-16.868h-4.176l7.421 20.68h4.541zm19.544 16.017c-.934.771-3.852 2.068-6.365 2.068-3.609 0-6.812-2.798-6.812-6.894h14.76c0-6.649-2.23-11.678-9.124-11.678-5.838 0-9.69 4.338-9.69 10.462 0 6.731 3.365 11.191 10.704 11.191 3.405 0 5.069-.812 6.528-1.338v-3.811zm-13.177-7.663c.282-2.676 1.823-5.758 5.555-5.758 3.284 0 5.15 2.595 5.15 5.758zm19.868 12.326h3.812v-9.407c0-5.19 2.229-8.434 5.636-8.434.648 0 1.418.081 2.108.365v-3.407c-.811-.162-1.38-.284-2.514-.284-2.189 0-4.379 1.541-5.395 3.69h-.08v-3.203h-3.568v20.68zm14.028-.649c1.744.933 3.731 1.136 5.678 1.136 3.691 0 7.218-2.028 7.218-6.448 0-6.609-8.962-5.393-8.962-9.61 0-1.703 1.703-2.514 3.651-2.514.89 0 3.161.527 4.013 1.054l.325-3.324c-1.5-.446-2.961-.812-4.745-.812-4.096 0-7.298 2.068-7.298 6.366 0 5.798 8.961 5.474 8.961 9.245 0 2.23-2.148 2.96-3.893 2.96-1.095 0-3.243-.487-4.743-1.46zm18.004.649h3.812v-20.68h-3.812zm27.736-15.976c1.539-1.297 3.852-2.108 6-2.108 3.811 0 5.108 1.824 5.108 5.393-1.5-.081-2.554-.081-4.054-.081-3.934 0-9.611 1.622-9.611 6.812 0 4.501 3.123 6.448 7.583 6.448 3.487 0 5.516-1.906 6.407-3.163h.08v2.676h3.569c-.082-.608-.162-1.703-.162-4.055v-8.556c0-5.636-2.393-8.556-8.312-8.556-2.636 0-4.906.812-6.813 1.946zm11.109 7.947c0 3.082-1.985 5.434-5.757 5.434-1.743 0-3.852-1.176-3.852-3.366 0-3.649 5.108-3.974 7.175-3.974.812 0 1.623.081 2.434.081z"/>
  </g>
</svg>
